<?xml version="1.0" encoding="UTF-8"?>
<svg width="192px" height="133px" viewBox="0 0 192 133" version="1.1" xmlns="http://www.w3.org/2000/svg" xmlns:xlink="http://www.w3.org/1999/xlink">
    <!-- Generator: Sketch 52.2 (67145) - http://www.bohemiancoding.com/sketch -->
    <title>Group 19</title>
    <desc>Created with Sketch.</desc>
    <defs>
        <polygon id="path-1" points="0 0.525483426 44.5718552 0.525483426 44.5718552 42.107232 0 42.107232"></polygon>
        <polygon id="path-3" points="0.000314547023 0.000144735925 37.862313 0.000144735925 37.862313 42.3021757 0.000314547023 42.3021757"></polygon>
    </defs>
    <g id="MENU" stroke="none" stroke-width="1" fill="none" fill-rule="evenodd">
        <g id="MENU_vacio+dropdown" transform="translate(-1063.000000, -633.000000)">
            <g id="Group-19" transform="translate(1054.500000, 633.000000)">
                <g id="Group-14" transform="translate(61.844454, 75.554984)">
                    <g id="Group-5" transform="translate(0.000000, 0.137944)">
                        <mask id="mask-2" fill="white">
                            <use xlink:href="#path-1"></use>
                        </mask>
                        <g id="Clip-4"></g>
                        <path d="M42.7127934,25.9611426 C41.6821919,30.1724162 38.9146888,33.8498198 35.3944619,36.3248549 C31.4245904,39.116233 26.5892524,40.4280282 21.7784525,40.6137222 C17.2090548,40.7901314 12.7749484,39.8006479 9.09223932,37.0006483 C5.88039706,34.5581096 3.44316387,31.1300665 2.25405936,27.270285 C1.24534326,23.9934498 1.22611067,20.5123513 2.05576474,17.1950614 C3.99759297,9.43305405 9.77333822,2.56701999 18.2005279,1.96152506 C18.3915274,1.9482612 18.5831901,1.93698693 18.7741896,1.92969181 C22.7984429,1.76522002 26.8876891,2.69302661 30.5458601,4.34437644 C34.6742346,6.20794793 38.2912876,9.14721799 40.5892503,13.0859195 C42.8341576,16.9337635 43.7811968,21.5933554 42.7127934,25.9611426 M43.3932291,15.6577808 C41.713362,11.1082788 38.4643809,7.36389281 34.3824298,4.78937874 C30.3508814,2.2480243 25.569262,0.831444691 20.8221286,0.564178032 C16.7534414,0.334713357 12.0931863,1.08611069 8.95296885,3.88809986 C2.60356191,8.3374597 -0.844376949,16.9198365 0.177603006,24.4915076 C1.3872665,33.4558833 8.72682014,40.9798045 17.7866956,41.9480659 C27.623833,42.9992263 38.7362899,38.8469768 43.0251571,29.3984704 C44.9994818,25.0485894 45.0419262,20.1210676 43.3932291,15.6577808" id="Fill-3" fill="#D6D6D6" mask="url(#mask-2)"></path>
                    </g>
                    <path d="M16.2103529,13.6317934 C16.3423283,14.2684584 16.2673875,14.9442517 16.0684297,15.5590314 C15.8707982,16.1718214 15.5610873,16.7448199 15.1910257,17.2694053 C14.8043844,17.8165393 14.1345598,18.8033701 13.3533188,18.6979224 C12.7219593,18.6123706 12.290884,17.7316507 12.1058533,17.2017597 C11.8790414,16.5544836 11.8379234,15.8475202 11.9924473,15.1790219 C12.1509504,14.4926175 12.5428973,13.8964073 13.0741146,13.4401307 C13.3367389,13.2153083 13.6272173,13.0236457 13.9309596,12.8585107 C14.2366914,12.6927125 14.5530343,12.5109977 14.9051897,12.4745221 C15.5975629,12.4042237 16.0810303,13.0083922 16.2103529,13.6317934 M16.3794671,12.2198561 C15.8177428,11.6839964 15.236786,11.8570897 14.5855308,12.1084397 C14.0032476,12.3325989 13.3964263,12.5070185 12.8917366,12.8883543 C12.4361232,13.2332146 12.0527979,13.6749009 11.7782361,14.1769378 C11.0812206,15.4522573 11.1528454,17.0810586 11.9015899,18.317913 C12.2365022,18.8723421 12.7272648,19.3796845 13.4110165,19.4082018 C14.1352229,19.4380455 14.7572977,18.9240711 15.2162271,18.4207079 C16.203721,17.3397038 17.0035314,15.9058811 17.0565868,14.4150239 C17.0837777,13.6623002 16.9511392,12.7650005 16.3794671,12.2198561" id="Fill-6" fill="#D6D6D6"></path>
                    <path d="M20.9491964,6.93255228 C20.8662973,7.51616186 20.1580075,8.13359426 19.567766,8.17338583 C19.1366907,8.20256631 18.9616078,7.70716136 18.9112052,7.36097477 C18.8249901,6.76542772 19.1114894,5.88470781 19.7733557,5.7308471 C20.459097,5.57168085 21.0413802,6.28394982 20.9491964,6.93255228 M20.0804139,5.04643223 C19.6579602,5.0218941 19.1970413,5.15121668 18.8667713,5.4224625 C18.5325222,5.69636108 18.4284009,6.24283187 18.4078419,6.65666412 C18.3846302,7.11028792 18.4303905,7.61166161 18.5444596,8.05202156 C18.6392962,8.41478797 18.9304378,8.70725595 19.3111104,8.75633221 C20.2800349,8.88233883 21.4074625,8.00029253 21.5964724,7.06585401 C21.7861456,6.12809953 21.0500017,5.10280361 20.0804139,5.04643223" id="Fill-8" fill="#D6D6D6"></path>
                    <path d="M29.1445339,23.6833409 C28.6119901,24.4864673 27.8486553,24.7510812 26.9122272,24.5813038 C26.1422605,24.4413702 25.2927107,24.0699823 24.7217017,23.5255011 C24.2010955,23.0300961 24.0532035,22.3085425 24.0386133,21.6155061 C24.0253494,21.0166431 24.0180543,20.4025266 24.175231,19.8195802 C24.4000533,18.9912526 25.1242597,18.3784625 25.875657,18.0289599 C26.2430658,17.8578562 26.6608772,17.6993532 27.0713935,17.7437871 C27.5356284,17.7955161 27.9434919,18.0554877 28.2790674,18.3678514 C28.3904838,18.4719727 28.4952682,18.5827258 28.5960735,18.6981214 C29.1617769,19.350703 29.7878308,20.1777043 29.9595977,21.040518 C30.1446285,21.9650086 29.6399388,22.9352596 29.1445339,23.6833409 M30.1718194,19.3686092 C29.7374282,18.658993 29.2519711,17.9367762 28.587452,17.4221386 C27.8871205,16.8776574 26.9593139,16.7390501 26.1150696,16.9844314 C24.7064483,17.3929581 23.7700202,18.8155065 23.5160174,20.1995897 C23.3581775,21.0557714 23.2520667,22.0087794 23.4908161,22.8583292 C23.937808,24.4552972 25.9625353,25.4620238 27.5289965,25.4507495 C29.3415021,25.4381488 30.5014261,23.5878412 30.7998629,21.9630191 C30.9729562,21.0246014 30.6566132,20.1617877 30.1718194,19.3686092" id="Fill-10" fill="#D6D6D6"></path>
                    <path d="M18.3055113,24.5505317 C17.3047535,24.7481631 16.6110539,23.9675853 16.4697939,23.0411051 C16.3994955,22.5801862 16.5022903,22.0708542 16.7622619,21.6815601 C16.9784627,21.3565956 17.3796943,21.0740756 17.7868946,21.1609538 C17.9400921,21.1941134 18.0826786,21.2664014 18.2186331,21.3459846 C18.6855207,21.6178936 19.2293387,21.9899447 19.4130431,22.5204988 C19.7061743,23.3660695 19.1994951,24.3734593 18.3055113,24.5505317 M19.3984529,21.3778178 C19.0045164,21.0037771 18.5190594,20.910267 17.9964635,20.8194096 C17.6754782,20.7637014 17.3385763,20.7497743 17.0288653,20.8505796 C16.3305234,21.0800443 15.9684202,21.8765387 15.9147016,22.5636064 C15.8158859,23.8303044 16.5387659,25.1109295 17.8989742,25.1885231 C19.1417973,25.2594847 20.13526,24.2149562 20.1219961,22.9893761 C20.1153642,22.3752596 19.8421288,21.798282 19.3984529,21.3778178" id="Fill-12" fill="#D6D6D6"></path>
                    <path d="M30.7999292,15.3370608 C29.9908341,15.5506088 29.3860023,14.6453508 29.6831127,13.9178284 C29.8044769,13.6227076 30.0571534,13.4031908 30.3681907,13.334882 C30.8927762,13.2194865 31.4770489,13.6061278 31.5685695,14.136682 C31.6567742,14.6506563 31.3032924,15.2044222 30.7999292,15.3370608 M30.4676696,12.7194392 C30.07307,12.736019 29.6632169,12.9475775 29.3800336,13.2148441 C28.9429896,13.6280132 29.0471109,14.1976957 29.2268361,14.7143228 C29.3004505,14.9278709 29.3906447,15.138103 29.5239464,15.3198178 C29.7189251,15.5837684 30.0100667,15.7482402 30.3303887,15.8066012 C31.2356468,15.9697466 32.0586689,15.2660991 32.1130507,14.3608411 C32.1680957,13.4635414 31.3629798,12.6816372 30.4676696,12.7194392" id="Fill-14" fill="#D6D6D6"></path>
                    <path d="M35.738261,25.9604794 C35.2421929,26.155458 34.7255657,25.8994657 34.5498197,25.3974288 C34.378716,24.9073294 34.6174653,24.3800912 35.0923113,24.1837861 C35.5837371,23.9808492 36.0572567,24.252095 36.2376451,24.7276042 C36.4233391,25.215714 36.2456034,25.7608584 35.738261,25.9604794 M36.7814631,24.813156 C36.6342343,24.0431893 35.9319133,23.4463159 35.1314397,23.629357 C34.6181285,23.7474053 33.8196445,24.2235777 33.90387,24.8469788 C33.924429,24.9915549 33.9834531,25.1268462 34.0444668,25.2588215 C34.3150495,25.8411047 34.7341873,26.4903704 35.4564041,26.468485 C36.3324817,26.4419573 36.9452717,25.6653586 36.7814631,24.813156" id="Fill-16" fill="#D6D6D6"></path>
                    <path d="M34.6191233,30.7737994 C34.449346,31.2552773 34.1296871,31.6850262 33.7450353,32.0152961 C33.0752107,32.5909474 31.9285505,33.0445712 31.0736951,32.5995689 C30.0218715,32.0524349 30.6850642,30.5171438 31.3104549,29.8910899 C31.689138,29.5124069 32.1852061,29.265036 32.7078019,29.1556092 C33.193259,29.0541407 33.8259448,28.969252 34.2596729,29.2676888 C34.7318661,29.59199 34.7961958,30.2710993 34.6191233,30.7737994 M35.5601938,30.0562249 C35.5250445,29.3651781 35.2385453,28.862478 34.5315819,28.7404506 C34.1038226,28.666173 33.668105,28.6476036 33.234377,28.6502564 C32.8928327,28.6515827 32.4226291,28.587253 32.0923591,28.6721417 C31.3893749,28.8525301 30.9098865,29.2643728 30.4111656,29.7630937 C29.4959597,30.8719519 29.2718006,32.8058218 30.8395881,33.4451396 C32.2017859,34.0015583 33.8033963,33.2959212 34.7099807,32.2401185 C35.2193127,31.646561 35.5999853,30.8513929 35.5601938,30.0562249" id="Fill-18" fill="#D6D6D6"></path>
                    <path d="M24.0527393,28.0274521 C23.893573,28.5215307 23.2966996,28.6992663 22.8570028,28.4518954 C22.6049896,28.3106354 22.2800252,27.9246572 22.3921047,27.6122935 C22.4192956,27.5353631 22.4750038,27.4716966 22.534028,27.4153252 C22.8178744,27.1454058 23.3073107,26.9345105 23.6893097,27.1016351 C24.0461073,27.2568222 24.1674716,27.6746336 24.0527393,28.0274521 M23.8166427,26.4470639 C23.1726825,26.2481061 22.4212852,26.602251 22.134786,27.2050931 C21.3668088,28.8219569 23.8975522,29.9381103 24.6071684,28.3855761 C24.9507022,27.6328524 24.6323697,26.6990771 23.8166427,26.4470639" id="Fill-20" fill="#D6D6D6"></path>
                    <path d="M25.731479,34.8637088 C25.5570593,35.008948 25.3368793,35.1064373 25.1100674,35.1263331 C24.9270262,35.1415865 24.7373531,35.1263331 24.5689021,35.0487396 C24.5297738,35.0308333 24.4906454,35.008948 24.4647809,34.974462 C24.4243261,34.9207434 24.4229997,34.847129 24.4349372,34.7808097 C24.4747288,34.5440499 24.5204891,34.3125957 24.6564436,34.1076691 C24.9031513,33.7342916 25.4118201,33.5930316 25.7891767,33.8636142 C26.1711757,34.1368496 26.0478219,34.5997581 25.731479,34.8637088 M26.5359317,33.8689197 C26.2441269,33.1772097 25.3242786,32.9172382 24.6789921,33.2561297 C24.1703233,33.5233963 23.8473485,34.1361864 23.9017303,34.7065321 C23.9720287,35.4327281 24.7287316,35.7895258 25.3985562,35.6350019 C26.1585751,35.4592558 26.8781391,34.6826572 26.5359317,33.8689197" id="Fill-22" fill="#D6D6D6"></path>
                    <path d="M16.2498792,36.0038697 C14.8777335,35.6238603 13.7138303,34.483832 13.8524376,32.9710895 C13.9359999,32.0578731 14.4937449,31.4676316 15.3943606,31.3449409 C15.8413525,31.2845904 16.2909971,31.252094 16.7406418,31.2375037 C17.2347204,31.2222503 17.7500211,31.1267505 18.1983394,31.3973332 C19.2070555,32.0068073 20.0639004,33.2111652 19.776738,34.4380717 C19.3940758,36.0754945 17.6830386,36.4011221 16.2498792,36.0038697 M17.8713854,30.7480675 C17.5278515,30.6996544 17.178349,30.6850642 16.8314992,30.6790955 C16.318188,30.6698108 15.8134984,30.5862485 15.2955449,30.6379775 C14.5235886,30.7162343 13.8239203,31.0610945 13.4127408,31.7382142 C12.6441005,33.0022595 12.996919,34.669526 14.0116038,35.6835476 C15.0282782,36.700222 16.6093296,37.157825 18.0219301,36.9528984 C19.5479365,36.7320553 20.6223087,35.4447982 20.6136872,33.9048648 C20.6090448,33.1700473 20.337799,32.446504 19.8815224,31.8728423 C19.4962075,31.3887117 19.0253407,31.0226293 18.4238249,30.8588207 C18.2421101,30.8090812 18.0577425,30.773932 17.8713854,30.7480675" id="Fill-24" fill="#D6D6D6"></path>
                    <path d="M8.50206413,16.6336688 C8.43043932,16.6601965 8.350193,16.6727972 8.26397795,16.6694812 C8.15123519,16.6641757 8.03517647,16.6177522 7.968194,16.5262316 C7.9230969,16.4645547 7.90386431,16.3869611 7.89126365,16.3113572 C7.84417697,16.0115941 7.89060046,15.6514804 8.09420062,15.4140574 C8.43375528,15.016805 8.84427156,15.4982829 8.90992764,15.8577334 C8.97094137,16.1893297 8.80116404,16.5249052 8.50206413,16.6336688 M9.46568313,15.8643653 C9.41727006,15.2409641 8.86947289,14.5472646 8.18041567,14.7137259 C7.41708087,14.8987567 7.27051528,15.8046779 7.5231917,16.4466485 C7.6777156,16.8366058 8.02854454,17.1463168 8.46094618,17.1542751 C9.13077081,17.1662126 9.51276981,16.4652179 9.46568313,15.8643653" id="Fill-26" fill="#D6D6D6"></path>
                    <path d="M36.0161387,14.1547871 C35.9087015,14.5394389 35.5260393,14.7191641 35.1632729,14.5321438 C34.8582043,14.3749671 34.6625624,13.9034371 34.8210655,13.5870942 C34.8867216,13.4571084 35.0074226,13.3616087 35.1400612,13.3005949 C35.2972379,13.2289701 35.4902269,13.1745883 35.6639834,13.1911681 C36.0924059,13.2322861 36.106333,13.8324755 36.0161387,14.1547871 M36.0771525,12.764072 C35.5253761,12.4835415 34.8721313,12.7594297 34.5537988,13.2568242 C34.2062859,13.799979 34.2613309,14.6415706 34.8475932,15.0003578 C35.4132966,15.3465444 36.2184125,15.1780935 36.498943,14.5473972 C36.7376924,14.0095479 36.6620884,13.0611824 36.0771525,12.764072" id="Fill-28" fill="#D6D6D6"></path>
                    <path d="M10.1302022,24.722166 C10.0393448,25.8071492 9.02930233,27.0433404 7.88330534,27.0791528 C6.74261389,27.1149652 5.96402566,25.5485041 5.86189398,24.5795795 C5.7783317,23.7804323 6.29429562,22.9448095 7.03441868,22.6390777 C7.81101733,22.3180924 8.98553161,22.6138764 9.57312034,23.2087602 C9.97103597,23.6119814 10.1772889,24.1564626 10.1302022,24.722166 M8.12072833,22.1211242 C7.94763503,22.1151555 7.77520493,22.1098499 7.60211163,22.1118395 C6.94621405,22.1184714 6.27042069,22.2312142 5.80883856,22.7345774 C5.40495421,23.1756006 5.20334363,23.7857379 5.19273254,24.3773058 C5.16620484,25.7938854 6.23527147,27.7940746 7.83688185,27.8007065 C9.35691952,27.8073384 10.6965688,26.2660786 10.8113011,24.8189921 C10.8650197,24.1458515 10.5824996,23.4342457 10.1865736,22.901702 C9.99690048,22.6463728 9.75748792,22.389054 9.46700951,22.2491204 C9.19045816,22.1158187 8.92120192,22.1403568 8.62409159,22.1363776 C8.45630383,22.1343881 8.28851608,22.1270929 8.12072833,22.1211242" id="Fill-30" fill="#D6D6D6"></path>
                    <path d="M14.1061751,27.1265711 C13.8183495,27.4024593 13.2824898,27.4216919 13.0066016,27.1133073 C12.660415,26.7273291 13.0059384,26.1092335 13.4370137,25.969963 C13.7228497,25.8777793 14.1227549,25.956036 14.2859003,26.2292714 C14.4576672,26.5190866 14.3356398,26.9057279 14.1061751,27.1265711 M14.6128543,25.8273766 C14.4211916,25.5919432 14.0743419,25.3631417 13.7586621,25.4002805 C13.6160757,25.4168603 13.4860899,25.4898115 13.3660521,25.5687315 C12.8136125,25.9321611 12.119913,26.5641837 12.5284397,27.2757895 C12.8872269,27.8998538 13.7885058,28.0318292 14.3475773,27.6126914 C14.9550618,27.1577412 15.0372977,26.3493093 14.6128543,25.8273766" id="Fill-32" fill="#D6D6D6"></path>
                    <path d="M21.1240803,11.7837406 C21.0677089,12.0370802 20.8282963,12.2917462 20.5524082,12.1756875 C20.2851415,12.0629447 20.042413,11.6948728 20.2307597,11.4183214 C20.3368705,11.2618079 20.5358284,11.2306379 20.7122376,11.2432385 C21.0040424,11.2637975 21.1890732,11.4952518 21.1240803,11.7837406 M21.1254067,10.7577815 C20.875383,10.6463651 20.5776095,10.632438 20.3163116,10.711358 C20.094142,10.7783404 19.8812572,10.8638923 19.7983581,11.1006521 C19.7419867,11.2598183 19.7506082,11.434238 19.7651984,11.6033522 C19.7990213,11.9820352 19.8865627,12.3998466 20.2367285,12.6114051 C20.7440709,12.9171369 21.3542082,12.6485439 21.5909679,12.1332431 C21.8264014,11.6219216 21.65994,10.9958676 21.1254067,10.7577815" id="Fill-34" fill="#D6D6D6"></path>
                    <path d="M28.7417106,8.43733652 C28.6428949,7.80465068 28.2900764,7.26083267 27.7489112,6.91928843 C27.2760548,6.6215149 26.5518483,6.41459878 26.0670545,6.78598669 C25.9390583,6.88347602 25.9397215,7.12421497 26.1287314,7.15538503 C26.5830184,7.23231538 27.0140936,7.17130165 27.4305787,7.41933572 C27.8749178,7.68394961 28.1501427,8.14553173 28.1965662,8.65884288 C28.2907396,9.72857271 27.4683806,10.5927128 26.471602,10.8268198 C25.9669124,10.9448681 25.328921,10.9521633 24.9276894,10.5688379 C24.5695653,10.2272936 24.5357425,9.68015965 24.5761973,9.21725114 C24.6484853,8.39223942 24.9203943,7.35633242 25.8468745,7.16002738 C26.0385372,7.11890943 25.9907873,6.7853235 25.7924927,6.81516717 C24.5682389,7.00152432 23.99723,8.41080881 23.9866189,9.52298298 C23.9733551,11.0237881 25.2161782,11.7373834 26.6062301,11.4031343 C27.944553,11.0801594 28.9618906,9.84927379 28.7417106,8.43733652" id="Fill-36" fill="#D6D6D6"></path>
                    <path d="M20.4925882,18.1265156 C20.3201581,18.358633 19.9726451,18.5622332 19.6755348,18.5158097 C19.1443174,18.4329106 19.2696609,17.656312 19.4997887,17.3558857 C19.652323,17.1562647 19.9978464,16.9088938 20.2651131,17.0010776 C20.7333271,17.1628966 20.7459278,17.7843082 20.4925882,18.1265156 M20.6066573,16.5368427 C20.0177422,16.2151942 19.4202056,16.5534225 19.1104946,17.0846399 C18.8405752,17.5475484 18.6462597,18.2047723 18.9924463,18.6776287 C19.5090734,19.3812762 20.5423276,19.0072355 20.9594759,18.4050565 C21.3733081,17.8068567 21.2890826,16.909557 20.6066573,16.5368427" id="Fill-38" fill="#D6D6D6"></path>
                    <path d="M24.7943213,15.0886951 C24.5986795,15.0807368 24.3519718,15.0396188 24.1987743,14.9063171 C23.9169174,14.6629254 24.0150699,14.3611727 24.2564721,14.1356872 C24.6185753,13.7974589 25.2001953,13.7550146 25.6392288,13.9572883 C26.0510715,14.1462983 26.0145959,14.5667624 25.6710621,14.8174493 C25.4309863,14.9925322 25.0920949,15.1006326 24.7943213,15.0886951 Z M25.3633407,13.4724945 C24.8055956,13.4028592 24.0163963,13.5268763 23.6834736,14.0236076 C23.6728625,14.0395242 23.6615882,14.0567673 23.6509771,14.0740103 C23.189395,14.8386714 23.8565669,15.4614094 24.6086274,15.5482876 C25.3328338,15.6318499 26.245387,15.208733 26.3886366,14.4281552 C26.5053585,13.7901638 25.9230753,13.550088 25.3925212,13.4764736 L25.3633407,13.4724945 Z" id="Fill-40" fill="#D6D6D6"></path>
                    <path d="M11.7241196,10.7426607 C11.4973077,10.8176015 11.2307042,10.8176015 11.0668956,10.6332339 C10.8002921,10.3328076 10.9528264,9.69680578 11.2559055,9.47596261 C11.5457207,9.26374095 12.1167296,9.31414359 12.2672744,9.6861947 C12.4410309,10.1113012 12.1319831,10.6073694 11.7241196,10.7426607 M12.7653321,9.74853481 C12.6864122,9.09993235 11.9661849,8.59325313 11.3560476,8.94673484 C10.9846597,9.16227247 10.7160666,9.58074706 10.5980183,9.98529461 C10.3798279,10.7307232 10.8460524,11.3189751 11.6345885,11.218833 C12.3481839,11.1279756 12.850884,10.458151 12.7653321,9.74853481" id="Fill-42" fill="#D6D6D6"></path>
                    <path d="M37.3010746,20.6659468 C37.2619462,22.060641 35.0163757,21.3821949 34.4088912,20.7979221 C34.0447984,20.4477564 33.8186497,19.9828583 33.7211604,19.4914325 C33.6561675,19.1638153 33.6548411,18.828903 33.6667786,18.4966434 C33.6720841,18.3288557 33.7039174,18.1537728 33.8067123,18.0198079 C33.8995592,17.89977 34.0434721,17.824166 34.1920272,17.7923328 C34.6197865,17.700149 35.0866742,17.879211 35.4587253,18.0768425 C36.3036328,18.5258239 37.3289287,19.6326925 37.3010746,20.6659468 M35.7817001,17.3261083 C35.2697154,16.9852273 34.6376927,16.7783111 34.0268922,16.9520676 C33.6011225,17.0734319 33.375637,17.3552888 33.2754949,17.7784057 C33.0977593,18.5278135 33.0937801,19.3707314 33.3557412,20.102233 C33.554699,20.6672732 33.9207814,21.1746156 34.4221551,21.5088647 C35.3280763,22.1176756 37.3912688,22.4990114 37.8183649,21.1341608 C38.2580617,19.7275291 36.8567355,18.0436828 35.7817001,17.3261083" id="Fill-44" fill="#D6D6D6"></path>
                    <path d="M32.3679157,10.8375636 C32.1954856,10.9018932 31.9229134,10.8640913 31.8393511,10.6790605 C31.7955804,10.5815712 31.8187921,10.4641861 31.8731739,10.3720023 C31.9673473,10.2141624 32.1663051,10.0258157 32.3672525,10.0656072 C32.7850639,10.1478431 32.7134391,10.708241 32.3679157,10.8375636 M32.833477,10.0092359 C32.6776267,9.76916011 32.4435197,9.58015019 32.1437566,9.60336193 C31.742525,9.63585837 31.3213976,10.0344372 31.4321508,10.4582173 C31.4719423,10.6107516 31.5654525,10.7440534 31.6755425,10.8567961 C31.9554098,11.1413058 32.3679157,11.2447639 32.685585,10.9582646 C32.9515253,10.7188521 33.033098,10.3156309 32.833477,10.0092359" id="Fill-46" fill="#D6D6D6"></path>
                    <path d="M32.0907011,25.558253 C31.9998437,25.7492525 31.7730318,25.7492525 31.6470252,25.5841175 C31.4905117,25.3785278 31.6543203,25.1059556 31.8201185,24.9693379 C31.8294032,24.9613796 31.8366983,24.9527581 31.8433303,24.9441366 C31.9063336,24.9176089 31.9700001,24.9063346 32.0276978,24.938831 C32.214055,25.0442787 32.162326,25.4057187 32.0907011,25.558253 M32.2153814,24.4686274 C32.0535623,24.3618534 31.845983,24.3585374 31.6019281,24.5389258 C31.4215397,24.6722276 31.3187448,24.8864388 31.2690054,25.1046292 C31.1788112,25.5005553 31.2351826,25.9700957 31.663605,26.1246196 C31.9932118,26.2439943 32.3566414,26.0854912 32.5098389,25.7737906 C32.6935433,25.3990868 32.561568,24.6980921 32.2153814,24.4686274" id="Fill-48" fill="#D6D6D6"></path>
                    <path d="M18.649443,28.2314502 C18.5559329,28.2374189 18.4610963,28.2148703 18.3695757,28.189669 C18.311878,28.1737524 18.2515274,28.1558462 18.2097463,28.1127387 C18.0008406,27.8998538 18.5207837,27.6299344 18.690561,27.6577885 C18.9737443,27.7048752 19.0155254,28.1452351 18.7210678,28.2201759 C18.6978561,28.2261446 18.673318,28.2301238 18.649443,28.2314502 M19.3835974,27.8030277 C19.2814657,27.4303134 18.9120673,27.1232552 18.5121621,27.2167653 C18.036653,27.3275185 17.8522854,27.9343398 17.9451324,28.3601095 C17.9663546,28.4536197 18.0001774,28.5471299 18.0638439,28.6180915 C18.2462219,28.8203653 18.635516,28.8369451 18.8769181,28.7620043 C19.2874344,28.6353345 19.4950137,28.2095648 19.3835974,27.8030277" id="Fill-50" fill="#D6D6D6"></path>
                    <path d="M27.4004697,30.2721604 C27.0602518,30.5188681 26.7777318,30.0141785 26.9494987,29.7276792 C27.0635678,29.5380061 27.373942,29.4451591 27.5377506,29.6262107 C27.7022224,29.8092519 27.5728998,30.1474802 27.4004697,30.2721604 M27.8879163,29.2216632 C27.6378927,29.0047992 27.2572201,28.9590389 26.9415404,29.1248371 C26.4885797,29.3629232 26.262431,29.9551543 26.4196077,30.4372954 C26.6053017,31.0089675 27.3215498,31.0454431 27.7440035,30.7171627 C28.0729471,30.4618335 28.2413981,29.9783661 28.1180442,29.5758081 C28.0736103,29.4305689 27.9927008,29.3111942 27.8879163,29.2216632" id="Fill-52" fill="#D6D6D6"></path>
                    <path d="M12.2130915,21.4631707 C12.2057964,21.5095942 12.1951853,21.5527017 12.1805951,21.5885141 C12.0665259,21.8677183 11.8184919,21.6992673 11.7163602,21.5129102 C11.6666207,21.422716 11.6235132,21.3258898 11.6195341,21.223095 C11.6109126,20.9929671 11.8755265,20.799978 12.0784634,20.9571547 C12.2038068,21.054644 12.2389561,21.2854351 12.2130915,21.4631707 M12.0433142,20.4080311 C11.7999225,20.3536493 11.5419405,20.4272637 11.3960381,20.6361694 C11.3104863,20.7581969 11.2680419,20.9060888 11.2527885,21.0539808 C11.2123337,21.4300111 11.3151286,21.818642 11.6440722,22.0328532 C11.8204815,22.1495752 12.0784634,22.2338006 12.2853795,22.1548807 C12.5241289,22.0646865 12.6222814,21.7887983 12.6680417,21.5573441 C12.7602255,21.0897932 12.5546358,20.5227635 12.0433142,20.4080311" id="Fill-54" fill="#D6D6D6"></path>
                    <path d="M10.5181699,30.7048273 C10.1288758,31.0165279 10.1043377,30.1265233 10.1580563,29.9428189 C10.1806049,29.8632358 10.2164173,29.7796735 10.2887053,29.739882 C10.4485347,29.6523405 10.5168436,29.8725205 10.5679094,29.9733258 C10.6647355,30.1656517 10.7158014,30.5469875 10.5181699,30.7048273 M11.1793731,30.225339 C11.1435607,29.7425347 10.7788047,29.0912795 10.2144277,29.15163 C9.89012646,29.1867793 9.74024491,29.5084277 9.69050545,29.7995693 C9.60163763,30.3155332 9.63877642,31.1796733 10.2887053,31.2963952 C10.8908842,31.4038325 11.2158487,30.7287023 11.1793731,30.225339" id="Fill-56" fill="#D6D6D6"></path>
                    <path d="M6.12969119,19.5940947 C6.01893801,19.6723515 5.87701477,19.6942368 5.76692479,19.5947579 C5.5016477,19.3560085 5.92609103,18.882489 6.19866323,19.0894051 C6.39032593,19.2339811 6.29548937,19.4767096 6.12969119,19.5940947 M6.70268969,18.9143222 C6.50041591,18.5263545 5.95925067,18.4063166 5.59383149,18.6311389 C5.32125929,18.7989267 5.0838363,19.1490924 5.21713803,19.4740568 C5.26820387,19.5980739 5.3564085,19.7028583 5.45058187,19.7983581 C5.56133505,19.911764 5.6840257,20.0185381 5.83125448,20.0782254 C6.45067646,20.3309018 6.96995635,19.4269702 6.70268969,18.9143222" id="Fill-58" fill="#D6D6D6"></path>
                    <path d="M16.4609734,9.66205449 C16.3800639,9.66205449 16.297828,9.62756847 16.2533941,9.55329088 C16.0909119,9.28536103 16.5922856,9.10033027 16.6811534,9.40871487 C16.7269137,9.56854432 16.5949384,9.66205449 16.4609734,9.66205449 M16.4390881,8.68052929 C16.1127973,8.68251886 15.6081076,9.00217775 15.6863644,9.37820801 C15.7102393,9.49294035 15.774569,9.59507202 15.8382355,9.69388774 C15.9257769,9.83183182 16.0186239,9.97176548 16.1505993,10.0685916 C16.5432093,10.3531013 17.1493675,9.97043909 17.213034,9.53007914 C17.2767005,9.08441364 16.879448,8.67721332 16.4390881,8.68052929" id="Fill-60" fill="#D6D6D6"></path>
                    <path d="M9.19695744,8.46552221 C7.164935,9.98158073 5.37099874,12.1581792 4.9565033,14.7253981 C4.93926029,14.8328354 5.07322522,14.8713005 5.11699594,14.7724848 C6.13433354,12.4460048 7.33006999,10.2713959 9.34484942,8.65585852 C9.45162344,8.57030666 9.30771063,8.38262312 9.19695744,8.46552221" id="Fill-62" fill="#D6D6D6"></path>
                    <path d="M24.5138571,38.6916571 C23.4295371,38.6458968 22.3239948,38.8972468 21.233706,38.9058683 C20.2654447,38.9131634 19.2998361,38.8574552 18.3408595,38.7195112 C16.3413335,38.4310223 14.3729775,37.8261906 12.5783781,36.895068 C9.23655005,35.1594927 6.76217807,32.372757 4.89396423,29.1503037 C4.82897135,29.0388873 4.67908979,29.1330606 4.72485009,29.2458034 C6.0963326,32.6234438 8.87975237,35.4194643 12.0173171,37.2100846 C13.8815517,38.2738457 15.9314804,38.9934097 18.0550234,39.3044471 C19.1081734,39.458971 20.1785665,39.5259535 21.2416644,39.482846 C22.3206789,39.4390752 23.5867137,39.3820407 24.5702285,38.8985732 C24.6756762,38.8468442 24.616652,38.6962994 24.5138571,38.6916571" id="Fill-64" fill="#D6D6D6"></path>
                    <path d="M41.5852331,21.2691869 C41.5593686,20.5549283 41.4870806,19.841333 41.3730115,19.1356959 C41.2675638,18.4837775 41.178696,17.7516128 40.820572,17.184583 C40.7549159,17.0804617 40.5977392,17.126222 40.5944233,17.2482495 C40.5751907,17.9008311 40.7840964,18.5494336 40.868985,19.1960465 C40.9598424,19.8870933 41.0002972,20.5834456 40.9923389,21.2811243 C40.9770854,22.6572492 40.7980234,24.0406692 40.4916284,25.382308 C39.8854703,28.0291101 38.669838,30.6659643 36.9004399,32.7351255 C36.8288151,32.8180246 36.9408947,32.9420416 37.0198146,32.8611321 C39.0830071,30.7342731 40.5267776,28.2220991 41.2078765,25.3299158 C41.5209035,23.9975616 41.6343094,22.636027 41.5852331,21.2691869" id="Fill-66" fill="#D6D6D6"></path>
                    <path d="M38.0776069,11.7095956 C37.6637747,10.6743518 36.8772282,9.81684366 36.0813969,9.05284567 C35.1370105,8.14692444 34.0745758,7.36568343 32.9517905,6.6958588 C30.620005,5.3058069 27.9426961,4.24403538 25.2647239,3.77184218 C25.1493284,3.7512832 25.1062209,3.90182795 25.2143213,3.94493547 C27.6867037,4.93972453 30.2128047,5.71764957 32.5134202,7.09907997 C33.5194835,7.70258533 34.4738178,8.39827447 35.341937,9.18813698 C36.250511,10.0158015 36.9720647,10.9913579 37.8269201,11.8654459 C37.929715,11.9715568 38.1353047,11.8528453 38.0776069,11.7095956" id="Fill-68" fill="#D6D6D6"></path>
                    <path d="M17.8333844,3.57964893 C16.8830293,3.39859732 15.8431431,3.85951625 15.0187946,4.28926512 C14.8775345,4.36287951 14.9829822,4.60892401 15.1341901,4.54724709 C16.0089413,4.18713345 16.9632756,4.11550864 17.832058,3.77396439 C17.9142939,3.74213114 17.9428112,3.60020791 17.8333844,3.57964893" id="Fill-70" fill="#D6D6D6"></path>
                </g>
                <g id="Group-3" transform="translate(162.013715, 82.484532)">
                    <mask id="mask-4" fill="white">
                        <use xlink:href="#path-3"></use>
                    </mask>
                    <g id="Clip-2"></g>
                    <path d="M4.35462081,19.5171858 C7.40384432,17.9957437 10.7649635,19.4740783 13.9574561,19.2483977 C15.5942742,19.1317538 17.2868785,18.4255511 18.207351,17.1158431 C18.5788364,17.0727355 18.9503219,17.058789 19.3218073,17.1018965 C19.5322735,17.125986 19.7566862,17.1779686 19.9722238,17.1728971 C19.6476495,17.9336182 19.2241814,18.6689819 18.8019813,19.3384164 C18.6802659,19.5336681 18.9338396,19.7035625 19.0961267,19.5767756 C21.7751327,17.4987393 22.6182651,12.6377319 19.2495388,10.719447 C18.4266922,10.2503357 17.3160395,10.0702984 16.2535658,10.1501741 C16.2231369,10.0817092 16.1128324,10.0322623 16.0418317,10.0601554 C15.9581524,10.0918521 15.8858839,10.1387633 15.8212226,10.1958173 C15.2811107,10.2731573 14.7663561,10.4214979 14.3238701,10.6332319 C12.6705697,11.4269175 12.2344229,13.2070048 12.2001905,14.8970734 C12.1963869,15.08345 12.4753179,15.0910572 12.4905324,14.9046806 C12.6261943,13.2133441 13.1498239,11.5904726 14.9780902,11.0934682 C15.1251629,11.0541642 15.2773071,11.0211997 15.4332549,10.9920387 C15.36479,11.3229523 15.3483077,11.6754198 15.3432363,11.9568865 C15.1670025,12.0025298 14.9907688,12.0671911 14.8145351,12.154674 C13.7951689,12.665625 13.4160763,13.6976699 12.9025896,14.6358925 C11.6778287,16.8736802 9.48568424,14.938913 8.77441006,13.3553454 C7.801955,11.1885583 8.34460268,8.26231802 9.4793449,6.26415742 C10.8701965,3.81209993 13.4743982,2.15499592 16.2167976,1.64658069 C21.8410618,0.603124999 27.2180917,3.88310056 30.5614607,8.1989246 C34.1102243,12.7784653 35.6608274,18.7894294 35.7457746,24.4758191 C35.79015,27.4908102 35.7026671,30.2243345 34.4195842,33.013645 C33.3850036,35.2603078 31.878776,37.4638631 29.8730081,38.9472691 C27.4589867,40.7311599 24.3793344,40.9758585 21.7472396,39.4924525 C20.1547968,38.5948017 18.9211609,37.1608425 18.1236717,35.527828 C17.8054367,34.8761436 17.5556666,34.1876911 17.359147,33.4903635 C17.1093769,32.5965163 16.9115895,31.5632035 17.0244298,30.6363917 C17.1271271,29.7945271 17.6253994,30.6110343 17.9055983,30.864608 C18.3011732,31.220879 18.785499,31.4731849 19.305325,31.587293 C19.565238,31.6430792 19.8276868,31.6633651 20.0850641,31.6506864 C21.8550084,32.4418363 24.0560279,31.8307237 25.1565377,29.9517428 C26.0161525,28.4835512 26.5334428,26.4105863 25.9223302,24.766161 C25.5242195,23.6910086 24.3387626,22.3458002 23.0873765,22.8643584 C22.9707326,22.9125374 22.9872149,23.079896 23.0785014,23.1407537 C24.3108695,23.966136 25.298539,24.3160677 25.4177186,26.0416366 C25.4380045,26.3433893 25.4278615,26.6565528 25.3898255,26.972252 C24.6189615,26.8657511 23.7923113,27.2524509 23.1063945,27.6645082 C23.0493404,27.4109345 22.9593217,27.1624323 22.8439457,26.9253409 C23.2319135,26.6489456 23.5881845,26.3307106 23.8937408,25.9617609 C24.190422,25.6054899 24.681087,24.9867701 24.4718888,24.5100516 C24.4427278,24.4428546 24.343834,24.4010149 24.2753692,24.4225687 C23.8696513,24.5531591 23.6743995,25.122432 23.4423796,25.4546136 C23.1862702,25.8222954 22.8883211,26.1481376 22.5536039,26.4372116 C22.35962,26.1671556 22.1212607,25.9199213 21.8423297,25.7056515 C21.9615093,25.4077024 22.0857604,25.1110212 22.2176187,24.8181436 C22.4661209,24.265353 22.783088,23.7100266 22.8376064,23.0989141 C22.8553565,22.9023945 22.6030507,22.8351974 22.474996,22.945502 C21.8423297,23.4868818 21.4885944,24.4225687 21.2020561,25.2923264 C16.1445291,22.5080874 12.8011601,30.7733215 9.39059411,32.77275 C7.91859889,33.6361684 6.16513689,33.8643847 4.7603387,32.7385175 C3.50134538,31.7305621 2.93587607,30.103887 2.51114016,28.6065344 C1.65025751,25.5712574 0.895875813,21.2440226 4.35462081,19.5171858 M19.2000919,13.1740402 C18.9693399,13.3122379 18.7677488,13.4808644 18.5864436,13.6697768 C18.4938892,13.4795965 18.3848526,13.2970234 18.2593336,13.1271291 C18.3696381,12.9103236 18.4850142,12.6960538 18.6156046,12.4906591 C18.7677488,12.2497641 19.0504835,11.9771724 19.093591,11.6804912 C19.1937526,11.7565633 19.2888427,11.8377069 19.3775935,11.9264577 C19.6894891,12.2396212 19.9278484,12.5654634 20.1091536,12.9001806 C19.8150081,12.8266443 19.4194332,13.0421819 19.2000919,13.1740402 M18.8615711,14.5471417 C19.1189484,14.2060851 19.4333797,13.9309576 19.8226153,13.7483846 C19.9620808,13.6824554 20.2131188,13.5607401 20.3322984,13.4009887 C20.7037839,14.438105 20.5643183,15.5424184 20.1890293,16.6137672 C19.7909186,16.336104 19.1493772,16.3272289 18.6130689,16.3766758 C18.7499987,16.0444943 18.8476245,15.6869554 18.8881963,15.2964519 C18.9135537,15.0441461 18.9021429,14.7918403 18.8615711,14.5471417 M16.1001537,11.8820823 C16.1115645,11.5968119 16.1419934,11.3178809 16.2066546,11.0364141 C16.2155297,10.9907708 16.2269405,10.9463954 16.2383513,10.9032879 C17.0865553,10.8665197 17.966456,11.0148603 18.6853374,11.4117031 C18.4292279,11.53849 18.2682087,11.8250282 18.1097251,12.0671911 C17.9930812,12.2434248 17.8878481,12.42473 17.7876865,12.6098388 C17.3135038,12.1914422 16.7264807,11.9175826 16.1001537,11.8820823 M22.8059097,29.8934208 C23.0848407,29.371059 23.2052882,28.8005183 23.1811987,28.2375847 C23.5767737,28.0359936 23.9824916,27.8699029 24.4097632,27.7380445 C24.7216588,27.6416865 25.028483,27.5618108 25.3188248,27.4299525 C25.1679485,28.2071559 24.8699994,28.9754841 24.4972461,29.6043468 C24.4275134,29.7235265 24.3476377,29.8325631 24.2652262,29.9390641 C23.9837594,29.8021343 23.6452386,29.8579205 23.3308072,29.8705992 C23.1558414,29.8769385 22.9808755,29.8858136 22.8059097,29.8934208 M22.1352073,30.7695179 C22.2543869,30.6566776 22.35962,30.5387658 22.4572459,30.4170505 C22.7539271,30.430997 23.0493404,30.4449436 23.3460216,30.4563544 C23.4829514,30.4614259 23.6186133,30.4728367 23.7517395,30.4741046 C23.0683584,31.0497168 22.1922614,31.3425944 21.3085571,31.3324515 C21.607774,31.1879145 21.8892408,31.0015378 22.1352073,30.7695179 M4.92009012,34.9420728 C7.03235888,35.8283128 9.38552263,35.0764669 11.1326453,33.7540801 C13.4198799,32.020904 14.6066047,29.1935575 16.9204645,27.5174354 C18.0273137,26.7148747 20.0051884,26.1088336 21.0270903,27.4464348 C21.5329698,28.1107979 21.4277367,29.0540919 20.7950704,29.6056147 C20.0939392,30.2154594 19.0251261,29.9441356 18.284691,29.4800957 C18.2390477,29.3824699 18.1566362,29.2924512 18.0247779,29.226522 C17.0941625,28.7612143 16.1077609,29.2163791 15.7274004,30.1774234 C15.2265924,31.4478275 15.6982394,33.2241111 16.058314,34.4640864 C16.9749829,37.6172751 19.1582523,40.4053178 22.2543869,41.6465609 C28.9284462,44.3204954 34.0950099,38.3069955 36.5204422,32.7943037 C38.1192242,29.159325 37.9708836,25.1110212 37.6729346,21.2275403 C37.3914678,17.5152216 36.0437237,13.9385649 34.4284593,10.6078746 C31.4502364,4.47265936 25.0386259,-0.401026776 17.9778668,0.0262448759 C14.6281585,0.22910382 11.1719492,1.76829606 9.14589551,4.50689181 C7.57120295,6.63564286 7.0475733,9.46552513 7.42286235,12.0570481 C7.753776,14.3379434 8.98867982,17.4860606 11.8325087,17.1564149 C12.5070146,17.0790749 13.1231987,16.7266075 13.5758277,16.2283352 C14.2452622,15.4917036 14.4646035,14.2403175 15.2582891,13.6469551 C15.9518131,13.1271291 16.9458219,13.5632758 17.2640569,14.312586 C17.5658096,15.0200566 17.2488425,15.9164396 16.7746597,16.4692302 C15.6754178,17.7485094 13.7571329,17.7802061 12.2255479,17.6166511 C9.55034553,17.3313807 6.88782188,16.7202681 4.26333429,17.6458121 C-0.984373028,19.4956321 -0.427778799,25.3595234 0.916161707,29.6791511 C1.58052475,31.8142415 2.74569581,34.0279397 4.92009012,34.9420728" id="Fill-1" fill="#D6D6D6" mask="url(#mask-4)"></path>
                </g>
                <g id="Group-7" transform="translate(99.795814, 0.178721)" fill="#D6D6D6">
                    <path d="M65.2291681,37.0820917 C65.0261874,36.9620037 64.8051404,37.2956997 65.000682,37.4327913 C66.5767047,38.5401519 67.7074452,40.1278646 68.3472063,41.9398125 C69.0528564,43.9388002 68.7510422,45.9016552 68.7436031,47.9654691 C68.7425404,48.1673871 69.0209746,48.1610107 69.0741109,47.9909746 C70.3897658,43.722004 69.1538154,39.408399 65.2291681,37.0820917" id="Fill-95"></path>
                    <g id="Group-6">
                        <path d="M68.6482766,68.7833159 C66.3474747,71.2775339 63.4568599,72.7525976 60.2399881,73.7239293 C56.8945266,74.733519 53.4449178,75.4923054 50.0293163,76.2202727 C46.6009621,76.9503655 43.1428516,77.5454921 39.6496711,77.860059 C32.7695826,78.480691 25.7258344,78.0343461 19.2984673,75.3148301 C13.2866261,72.7727894 8.01444219,68.4517453 5.39801067,62.3601997 C3.065327,56.9264814 2.46276133,50.934832 3.58500004,45.1302223 C4.80607226,38.8165669 8.13240478,32.7048294 13.2164862,28.687725 C15.8467331,26.6079701 18.7979233,25.0351356 22.2028976,24.928863 C24.4505632,24.8597858 26.7279851,25.2689353 28.9469571,25.5739377 C30.8311703,25.8332428 37.9439958,28.26476 38.4817351,28.4231062 C41.8580158,29.4241941 45.4425907,29.4975222 48.9357712,29.738761 C52.1781484,29.9619335 55.356762,30.3083822 58.4652357,31.3009683 C64.0349828,33.0799717 69.2157723,36.6326649 72.0925717,41.8134543 C75.194669,47.3991424 74.9672457,54.6352441 73.1680505,60.6067017 C72.2647333,63.6057146 70.780105,66.4718867 68.6482766,68.7833159 M31.0554055,20.6311988 C29.6887398,19.3633667 28.4283468,17.9701328 27.3262998,16.4653127 C26.786435,15.7277809 26.2837656,14.9647436 25.8161661,14.1804518 C25.5579237,13.7479223 25.0722579,13.0826557 24.8767163,12.4482083 C27.8140911,14.0507992 30.4464635,16.6385371 32.7387636,18.9520917 C33.264813,19.4813293 33.7749215,20.0286332 34.27334,20.5844389 C33.5506863,19.901106 32.787649,19.2400904 31.953409,18.7544246 C31.7929374,18.6609048 31.6037722,18.880889 31.7121702,19.028608 C32.5612883,20.1721012 33.7653569,21.1593737 34.7919503,22.1381444 C35.7409647,23.043587 36.6995436,23.939465 37.6528088,24.839594 C37.8292213,25.09146 38.0066966,25.3433261 38.1841718,25.5941295 C38.1267846,25.5654359 38.0693974,25.5367423 38.0109475,25.5059232 C37.1968993,25.0808328 36.4062312,24.614296 35.6325666,24.1190657 C34.0087212,23.0786569 32.4698939,21.9447282 31.0554055,20.6311988 M38.9482719,19.9574305 C38.4041561,17.895742 38.0343275,15.7681645 37.8834204,13.6416496 C37.6241152,9.96886844 37.9450585,6.26314273 38.8845083,2.70726139 C40.5274828,6.10585927 41.3893536,9.92423395 41.5253825,13.6735314 C41.6507842,17.1613983 40.9185659,20.4239673 40.1884732,23.7502998 C40.1874104,23.7502998 40.1874104,23.749237 40.1874104,23.749237 C40.1278978,22.1222035 40.1130196,20.490919 40.1406505,18.86176 C40.1661559,17.3441872 40.363823,15.7639136 40.1916613,14.2516544 C40.1704068,14.0688655 39.9217289,14.047611 39.8717808,14.2272117 C39.416934,15.8521198 39.4775094,17.6768204 39.4796349,19.3516767 C39.4817603,20.2305511 39.5157676,21.1083628 39.5699666,21.9829864 C39.343606,21.3145317 39.1289353,20.6418261 38.9482719,19.9574305 M41.2001883,27.2742993 C41.2182547,27.267923 41.236321,27.2572957 41.2490737,27.2381667 C42.5817322,25.4049642 43.622141,23.4006629 45.0472566,21.6205968 C46.5095677,19.7916453 48.1217231,18.0817191 49.8943501,16.5513936 C51.6202172,15.0593262 53.4938032,13.7266677 55.4672855,12.5831745 C56.4704989,12.0018634 57.5066568,11.4917549 58.5460028,10.9805836 C59.4875781,10.5182978 60.5184224,10.1771627 61.4143004,9.63198429 C61.5333257,9.56078164 61.4791267,9.34823643 61.3324705,9.36524005 C59.0933067,9.62135703 56.7818776,10.921071 54.8551553,12.0241806 C52.8104704,13.1953047 50.895438,14.5800367 49.1291874,16.1401186 C47.8592297,17.2612946 46.6657884,18.4706768 45.5743687,19.7661398 C46.5945857,18.2804488 47.6966327,16.8542705 48.9208931,15.5269257 C50.6191293,13.683096 52.5150325,12.049686 54.6511119,10.730843 C55.6617644,10.1070228 56.718114,9.53633894 57.8276,9.10912307 C58.405723,8.8859506 58.9976614,8.69784809 59.6182934,8.6489627 C60.0773911,8.61176728 60.5269242,8.66596631 60.9796455,8.66702904 C61.5290748,9.19626661 62.009427,9.86897219 61.7894427,10.5469914 C61.4344922,11.6405365 59.7001233,12.1633977 58.7734262,12.6012409 C56.4407425,13.702225 54.146317,14.9020427 51.9666659,16.2825239 C47.8007798,18.9212726 43.5137429,22.4442095 41.736865,27.1850303 C41.7039205,27.2732366 41.6890423,27.3561292 41.682666,27.434771 C41.504128,27.4124537 41.3266527,27.3911992 41.1491775,27.3667565 C41.1672438,27.3370002 41.1831847,27.3061811 41.2001883,27.2742993 M52.6818805,22.5217885 C55.457721,21.4367452 58.4120994,20.7969841 61.3877323,20.6056934 C59.1315649,22.6822601 56.5342624,24.3199209 53.6734039,25.4931705 C51.9464741,26.200946 50.1440907,26.7195563 48.3077001,27.0511269 C47.3416822,27.2264767 46.3650369,27.3550665 45.3862662,27.4294573 C44.9154786,27.46559 44.4287501,27.4666527 43.9483979,27.5027854 C46.6881056,25.5526831 49.5362114,23.7502998 52.6818805,22.5217885 M76.1511225,46.5415225 C74.7461986,40.232118 70.4570363,35.2256156 64.9383,32.0214966 C62.2485404,30.4592893 59.2760956,29.3381133 56.2388246,28.6749723 C54.4034967,28.2732618 52.5447889,28.078783 50.6775792,27.9640085 C51.7668734,27.679198 52.8402267,27.3316865 53.8891373,26.9235997 C57.6320584,25.4708532 61.0731654,23.1828041 63.8936403,20.3293846 C64.3686788,19.8500952 64.0711155,18.981848 63.3675909,18.9722835 C57.2452262,18.8893909 50.5043549,20.7906077 45.6785159,24.8109004 C46.7306147,23.5165 47.8602925,22.2911769 49.1430028,21.18913 C51.365163,19.2815368 53.8413146,17.6874477 56.4056726,16.2846493 C57.6862575,15.5832501 58.9934105,14.9413636 60.3111908,14.3175434 C61.478064,13.7649259 62.7607743,13.1517329 63.4536717,12.0050515 C64.5355268,10.2122327 63.638586,8.5310001 62.1093233,7.70738742 C62.087006,7.52672399 62.0147406,7.3556251 61.8882762,7.23341161 C59.9743066,5.3725783 56.4290526,7.26741884 54.5565293,8.29082402 C52.105883,9.62879611 49.8954128,11.398235 47.9548751,13.4004108 C45.9325074,15.4876048 44.176884,17.9031811 42.8006538,20.4611627 C42.7368902,20.580188 42.6752521,20.6992133 42.6114885,20.8182386 C43.1152207,18.3654669 43.180047,15.7798544 43.032328,13.4004108 C42.7507056,8.87638607 41.4339881,4.62548189 39.3053478,0.640259231 C39.0301018,0.1248371 38.2681272,0.168408868 38.0704602,0.726340041 C36.5550128,5.00806327 35.9450081,9.55865619 36.348844,14.0858691 C36.546511,16.2931511 36.9524724,18.4600495 37.6102998,20.5791253 C37.8409113,21.3198453 38.0917147,22.065879 38.3818389,22.7970345 C37.112944,20.8543713 35.5773049,19.0466743 34.1118056,17.4238916 C31.4146069,14.4344433 28.229617,11.5023821 24.334726,10.2781217 C23.8479975,10.1250892 23.4516007,10.4885415 23.2847527,10.9019419 C22.5791026,12.6416244 24.0913618,14.6406121 24.9872398,16.0253442 C26.1434858,17.8107239 27.484646,19.4845174 28.9788388,20.9978393 C30.4379617,22.4750285 32.0501171,23.8034361 33.7696079,24.9660584 C34.1022411,25.1902936 34.4423134,25.4028388 34.7866367,25.6079449 C32.6006092,25.0308847 30.4060799,24.4835807 28.2147388,23.9128969 C26.3273374,23.4208547 24.4271832,22.9298753 22.4760182,22.7789682 C20.6757603,22.6397511 18.8638124,23.0148934 17.1921443,23.6727208 C10.6818846,26.236016 5.78378022,32.2170382 3.16841143,38.5530108 C0.726266978,44.4702694 0.0408086801,51.1654435 1.45317159,57.4248999 C2.95799167,64.096694 6.8560708,69.8556065 12.4704525,73.7632501 C25.133896,82.5764372 41.4212354,80.3032662 55.4811009,76.9067938 C58.948776,76.0683029 62.5237864,75.2521293 65.6588282,73.4869413 C68.5866385,71.8386532 70.9235731,69.4135124 72.688761,66.5728457 C76.2743987,60.803306 77.6283117,53.1835603 76.1511225,46.5415225" id="Fill-89"></path>
                        <path d="M51.6295692,24.1322435 C49.9780929,24.4627513 48.4541438,25.352253 47.0247772,26.2077475 C46.9046892,26.2800128 47.0120245,26.4447354 47.1331753,26.3894736 C48.6518108,25.6955135 50.2809698,25.1939068 51.7485945,24.3926114 C51.9026898,24.308656 51.7794136,24.1024872 51.6295692,24.1322435" id="Fill-91"></path>
                        <path d="M8.47502765,60.3416578 C7.91072012,58.2448993 7.05947656,56.2427235 6.53767808,54.1289614 C6.0488241,52.1491027 5.75657443,50.1118569 5.77782895,48.0692975 C5.82246345,43.8619651 7.22101092,39.6291272 10.1509466,36.5493472 C10.3443628,36.3463665 10.0170431,36.0721832 9.82150155,36.2677248 C6.63119797,39.4463383 5.16888693,43.8757805 5.14656968,48.323289 C5.12637789,52.3584598 6.04032229,57.004698 8.15620984,60.4936276 C8.2646079,60.6721656 8.5260385,60.5308231 8.47502765,60.3416578" id="Fill-93"></path>
                        <path d="M59.5953385,70.8142916 C57.622919,71.1246076 55.6972594,71.7367378 53.7524707,72.1862709 C51.9277701,72.6081732 50.0924422,72.9875664 48.2486126,73.3223251 C44.5216323,74.001407 40.7510803,74.5497737 36.9677756,74.7750716 C29.529756,75.2171656 21.6857751,74.3627339 15.5325913,69.7962001 C15.3221716,69.6410421 15.0586155,69.9332917 15.2626589,70.1075788 C24.5253791,78.0503932 38.4800348,76.100291 49.4994411,73.9397689 C52.8810354,73.2766279 56.5283112,72.6793758 59.7154266,71.3297137 C59.9832335,71.2170648 59.9067173,70.7654062 59.5953385,70.8142916" id="Fill-97"></path>
                        <path d="M47.4061896,32.3102392 C45.4210174,32.7618978 43.5304277,33.1742355 41.477241,32.974443 C39.5940905,32.7895287 37.7024381,32.2124684 36.0403346,31.3070259 C35.8788002,31.2188196 35.7704022,31.453682 35.9128075,31.5535783 C39.1126756,33.7927421 44.0160935,34.6716165 47.5581595,32.6301198 C47.7430738,32.5227844 47.591104,32.2687929 47.4061896,32.3102392" id="Fill-99"></path>
                    </g>
                </g>
                <path d="M44.7416916,84.4324022 C45.5062163,83.6146271 46.2859553,81.814254 44.9623007,81.0953726 C44.6351907,80.917871 44.31442,81.2678027 44.4703678,81.5860377 C45.0003368,82.6675294 44.5756009,83.364857 43.7400756,84.1496676 C43.158124,84.6961189 42.3948672,85.4885366 41.5327167,85.4568399 C39.9605599,85.398518 40.6807091,83.8403077 41.3716974,83.1886233 C42.1489007,82.4545275 43.1708027,81.8941297 44.1876331,81.592377 C44.4665642,81.5086977 44.4450104,81.0193005 44.1242397,81.0548008 C42.5254576,81.2310345 40.9456936,81.92963 40.0467749,83.3306246 C39.3316971,84.4476167 39.544699,85.9272191 40.9596402,86.2974367 C42.4455819,86.6879401 43.8098083,85.4276789 44.7416916,84.4324022" id="Fill-19" fill="#D6D6D6" transform="translate(42.662450, 83.708869) rotate(89.000000) translate(-42.662450, -83.708869) "></path>
                <path d="M142.24136,98.9568091 C142.189377,99.333366 141.938339,99.3295624 141.486978,98.9415947 C140.892348,98.9834343 140.622292,98.7247892 140.675542,98.1694628 C140.627363,97.8448885 140.622292,97.5101712 140.615952,97.1830612 C140.605809,96.6239312 140.636238,96.0724085 140.697096,95.5221536 C140.728793,95.5310287 140.761757,95.537368 140.797257,95.5348323 C141.702515,95.4917248 142.360539,95.8543351 142.50888,96.8141115 C142.591291,97.3466162 142.555791,98.476287 142.24136,98.9568091 M142.980527,99.9508179 C143.693069,98.9276481 143.847749,96.9206124 143.297494,95.8086919 C142.847401,94.9008981 141.738016,94.2251242 140.812472,94.6764854 C140.817543,94.6422529 140.822615,94.6080205 140.828954,94.573788 C140.915169,94.0818551 140.191216,93.8827997 140.068233,94.3785363 C139.680265,95.9304072 139.151564,98.3710539 140.15952,99.8050131 C140.842901,100.778736 142.25911,100.986666 142.980527,99.9508179" id="Fill-21-Copy" fill="#D6D6D6" transform="translate(141.603611, 97.364354) rotate(89.000000) translate(-141.603611, -97.364354) "></path>
                <path d="M81.8673253,29.7455328 C81.5795192,30.5493614 80.7021543,31.1541346 80.1633102,30.0536248 C79.6029124,28.9074718 79.9021293,27.268118 80.1290777,25.8493732 C80.1506315,25.9026237 80.1861318,25.9520706 80.2368466,25.9888387 C80.541135,26.2094478 80.945585,26.2905914 81.2333911,26.5175399 C81.7126454,26.8953646 81.909165,27.5584598 81.9586119,28.1340721 C81.99538,28.5575401 81.9991836,29.3765831 81.8673253,29.7455328 M80.2469895,25.4981737 C80.2178285,25.5159238 80.1950069,25.5362097 80.1759889,25.5577635 C80.2254357,25.2357249 80.2672754,24.9289008 80.290097,24.647434 C80.3065793,24.4433072 80.0086302,24.3545564 79.9084686,24.5295222 C79.0006749,26.1105541 78.5379029,28.5930404 79.2086053,30.3528418 C79.6016445,31.3861545 80.8340126,32.2736624 81.9357902,31.6422639 C83.9656475,30.4821644 82.7345473,24.0933755 80.2469895,25.4981737" id="Fill-27-Copy" fill="#D6D6D6" transform="translate(80.922434, 28.144854) rotate(89.000000) translate(-80.922434, -28.144854) "></path>
                <path d="M98.768199,7.77566849 C98.3802313,7.52843416 98.0011386,7.27359261 97.6423318,6.98451861 C97.4825804,6.85392817 97.3266326,6.72080198 97.1744884,6.5838722 C97.0984163,6.44060307 97.149131,6.36579883 97.3279005,6.35692375 C97.9592989,5.709043 99.5568131,6.34931654 100.036067,6.81969572 C100.597733,7.36868274 100.754949,8.09517133 100.829753,8.83687435 C100.107068,8.55160396 99.4274906,8.19533294 98.768199,7.77566849 M96.9386649,5.0991983 C95.5604919,5.64564958 95.5034379,6.85519603 96.562108,7.75284686 C97.8312442,8.82926714 99.3095788,9.5088446 100.922307,9.89427659 C101.354651,9.99697394 101.566385,9.59505965 101.457348,9.27555681 C102.726484,6.72714133 99.3311326,4.14956486 96.9386649,5.0991983" id="Fill-33-Copy" fill="#D6D6D6" transform="translate(98.781027, 7.404189) rotate(89.000000) translate(-98.781027, -7.404189) "></path>
                <path d="M84.7905234,55.8930176 C82.5996468,55.9931792 80.671219,57.1596181 79.6417098,59.1057961 C79.4654761,59.4392455 79.9396589,59.7308552 80.1463215,59.4100845 C81.0896155,57.9495001 82.6186648,57.0036703 84.3290193,56.8337759 C84.1870181,57.7910166 83.4567259,58.528916 82.5463963,58.9016693 C81.6969245,59.2503331 80.6445937,59.0905817 79.9079622,59.6306936 C79.774836,59.7283195 79.8154078,59.9704824 79.9523376,60.0427509 C80.9831146,60.5980772 82.8430775,59.9324463 83.7496035,59.3061193 C84.7334693,58.6278097 85.3686714,57.5425144 85.2609026,56.3329679 C85.2393488,56.0908051 85.0479007,55.8816068 84.7905234,55.8930176" id="Fill-39-Copy" fill="#D6D6D6" transform="translate(82.437993, 58.071522) rotate(89.000000) translate(-82.437993, -58.071522) "></path>
                <path d="M44.7304961,101.620679 C45.4100735,101.034924 48.5391728,98.9632267 49.2808758,100.165166 C49.558539,100.616527 49.124928,100.847279 48.7154065,101.118603 C48.4073144,101.325266 48.0764008,101.473606 47.7201298,101.571232 C46.8617829,101.809591 46.1429015,101.605464 45.2883582,101.520517 C44.8154433,101.473606 44.7774072,102.126558 45.0893028,102.338292 C46.1276871,103.040691 47.7049154,102.835297 48.7838714,102.335757 C49.6675756,101.928771 50.9379798,100.986745 50.5690301,99.8507346 C50.2368486,98.8275648 48.980391,98.7641713 48.1004903,98.9327978 C46.5879233,99.2244076 45.2845546,100.004147 44.2563133,101.138889 C43.9634357,101.462195 44.4008503,101.904681 44.7304961,101.620679" id="Fill-49" fill="#D6D6D6" transform="translate(47.397235, 100.826094) rotate(89.000000) translate(-47.397235, -100.826094) "></path>
                <path d="M144.265851,108.162899 C144.945428,107.577143 148.074527,105.505446 148.81623,106.707386 C149.093893,107.158747 148.660282,107.389499 148.250761,107.660823 C147.942669,107.867485 147.611755,108.015826 147.255484,108.113452 C146.397137,108.351811 145.678256,108.147684 144.823713,108.062737 C144.350798,108.015826 144.312762,108.668778 144.624657,108.880512 C145.663042,109.582911 147.24027,109.377517 148.319226,108.877976 C149.20293,108.470991 150.473334,107.528964 150.104385,106.392954 C149.772203,105.369785 148.515745,105.306391 147.635845,105.475018 C146.123278,105.766627 144.819909,106.546366 143.791668,107.681109 C143.49879,108.004415 143.936205,108.446901 144.265851,108.162899" id="Fill-49-Copy" fill="#D6D6D6" transform="translate(146.932590, 107.368313) rotate(89.000000) translate(-146.932590, -107.368313) "></path>
                <g id="Group-11" transform="translate(128.819210, 125.350792) rotate(89.000000) translate(-128.819210, -125.350792) translate(120.819210, 116.850792)" fill="#D6D6D6">
                    <path d="M9.70046115,14.7168375 C8.37934227,15.665203 6.74125629,15.7197214 5.26418961,15.2100383 C7.12795616,14.3618343 8.574594,12.5069428 9.67637165,10.8916785 C10.5334507,9.63648877 11.2561357,8.30649481 12.0231961,6.99678675 C12.3794671,6.38567418 12.7648991,5.79611538 13.160474,5.21416378 C12.9462043,6.93212546 12.8409712,8.67164091 12.3946815,10.3490308 C11.947124,12.0251528 11.1445633,13.680989 9.70046115,14.7168375 M3.00991959,13.8521512 C3.7034436,12.7579808 4.06985757,11.4685586 4.80395338,10.3781918 C5.6699075,9.09003749 6.73111335,7.95149166 7.89755228,6.9308576 C9.04243745,5.93050943 10.2849485,5.04680515 11.5350667,4.18465464 C12.1740724,3.74343643 12.8675964,3.33264707 13.5281559,2.88255379 C13.5116736,2.95355442 13.4989949,3.02582292 13.4837805,3.09809142 C11.6897467,4.72603444 10.5486651,7.13752015 9.3492616,9.16610959 C8.6912379,10.2767623 7.98249946,11.3645934 7.13683124,12.3433878 C6.30003809,13.314575 5.35420826,14.0537423 4.37794959,14.8258741 C4.29173454,14.7814987 4.20678736,14.7358555 4.12310804,14.6876765 C3.71865802,14.451853 3.34083324,14.1703862 3.00991959,13.8521512 M3.56904955,10.2501371 C3.05429498,11.098341 2.49643288,12.0492423 2.32907426,13.0470548 C1.79276592,12.2508334 1.52397782,11.3037357 1.70274726,10.2628158 C2.00196421,8.52330031 3.20643919,7.12610933 4.62518393,6.15999361 C6.51303998,4.87437505 8.71279166,4.22522643 10.790828,3.33645068 C10.6779877,3.41379065 10.5664153,3.49113062 10.4548428,3.56720272 C9.0360981,4.52571124 7.66046089,5.56789906 6.42682493,6.75842749 C5.34279745,7.80441893 4.35132436,8.95944704 3.56904955,10.2501371 M13.3798152,12.1519397 C14.0898216,10.3908705 14.3028234,8.47258557 14.5158253,6.60121181 C14.6324692,5.58438135 14.7478453,4.56881876 14.9443649,3.56339912 C15.1332772,2.59474766 15.454048,1.68822175 15.4819411,0.699284399 C15.492084,0.275816352 15.0610088,0.0932433024 14.7579882,0.384853035 C14.6502194,0.487550376 14.5538614,0.599122795 14.4625749,0.71449882 C14.3687526,0.585176242 14.1988582,0.523050691 14.0327675,0.654909005 C11.1052593,3.00426915 7.21543908,3.30221823 4.05337528,5.21162804 C1.75599774,6.60121181 -0.181305182,9.1775204 0.432343125,11.9997955 C1.05867012,14.8791246 4.24228767,16.802481 7.04554471,16.9115177 C10.0148925,17.0268937 12.3338238,14.7510699 13.3798152,12.1519397" id="Fill-12"></path>
                </g>
                <path d="M28.0870266,74.4136956 C27.7092019,74.1867472 27.2730551,74.0358708 26.8749445,73.879923 C26.2486175,73.6339566 25.6121475,73.4171511 24.9680704,73.2244351 C24.5331915,73.0925768 24.383583,73.77469 24.8121226,73.909084 C25.5170574,74.1271574 26.2118493,74.3756596 26.8914267,74.6634657 C27.0194814,74.717984 27.1462683,74.776306 27.2730551,74.8346279 C27.1665542,74.8866105 27.062589,74.9373253 26.9598916,74.9867721 C25.6273619,75.6308493 24.2441175,76.1773006 22.8279085,76.6109116 C22.3714759,76.4017133 21.9023646,76.2166045 21.4573428,76.0074062 C20.5951923,75.6016883 19.7507919,75.1744167 18.9254096,74.7015018 C19.6620411,74.5341431 20.3961369,74.3490343 21.127697,74.1449075 C22.7695866,73.687207 24.3848509,73.1306128 26.040687,72.7248949 C27.5773435,72.3470701 29.0252493,72.3039626 30.5378163,72.2202833 C30.0458833,73.1838633 29.075964,73.871048 28.0870266,74.4136956 M21.3445025,77.0217009 C19.7076844,77.4248831 18.006205,77.7266358 16.3148685,77.8191902 C15.8711146,77.5047588 15.3550921,77.2740067 14.8897844,77.0166295 C14.2051355,76.6375368 13.5280938,76.2584442 12.8700701,75.8349761 C12.6710147,75.7081893 12.4187089,76.0099419 12.6063535,76.1684255 C13.227609,76.6882515 13.950294,77.3285251 14.7249616,77.8191902 C13.8374537,77.753261 12.9461422,77.5491342 12.2120464,77.0622727 C11.7581495,76.76052 11.4310394,76.3294448 11.0506789,75.9541557 C11.1609835,75.9009053 11.271288,75.8463869 11.3815926,75.7918686 C13.6536128,75.6485995 15.896472,75.3417753 18.1139738,74.8764676 C18.1355276,74.9132358 18.1659564,74.9449325 18.2039924,74.9715577 C19.1282685,75.6295814 20.231314,76.4359457 21.3939493,77.0090222 C21.3761992,77.0128259 21.3597169,77.0178973 21.3445025,77.0217009 M10.1517602,74.7877168 C10.1504924,74.7915204 10.1479566,74.795324 10.1454209,74.7978598 C9.80563215,69.3384184 10.0452593,63.8346017 11.2510021,58.5704121 C11.8354895,60.3999462 12.6735505,62.19398 13.5002007,63.8954594 C13.2047873,64.7740922 12.9081061,65.652725 12.6228357,66.5351614 C11.753078,69.2014886 10.6513004,71.9996742 10.1517602,74.7877168 M15.2422519,48.1295158 C15.530058,50.256999 16.2248499,52.4009644 16.8575162,54.4118037 C16.4530662,55.4932955 16.0549555,56.5760551 15.6631842,57.6626183 C15.5237186,58.050586 15.385521,58.4385538 15.2485912,58.8277894 C15.1725191,58.8937185 15.0989827,58.9609155 15.0229106,59.0255768 C14.8973917,59.1358814 14.9404992,59.3083115 15.0419287,59.4084731 C14.6412822,60.545751 14.2469752,61.683029 13.8577396,62.8228427 C13.275788,60.8538431 12.601282,58.8227179 11.6338984,57.0274162 C12.4605486,53.9490317 13.6358626,50.9632017 15.2422519,48.1295158 M16.2857076,46.4001433 C17.5966835,44.370286 19.1663046,42.4596083 21.069375,40.9559164 C21.5296113,40.5920381 22.091277,40.2002668 22.6263174,40.4627156 C21.1391078,42.9984524 20.1717242,45.9348356 19.085161,48.6417346 C18.4803878,50.1492301 17.8920968,51.6643329 17.3164846,53.1832392 C16.8346946,51.2142396 16.4099587,49.1856502 15.7341848,47.2863833 C15.9129542,46.9897021 16.0967952,46.6942888 16.2857076,46.4001433 M23.4136637,42.2326598 C23.6482194,43.5334928 23.7369702,44.8723619 23.7280951,46.1922129 C23.6976662,46.1985522 23.6672374,46.2086952 23.6380764,46.2302489 C22.8507301,46.8096648 22.2294746,47.5729216 21.5384863,48.2601062 C20.876659,48.9181299 20.2034209,49.5545999 19.5022897,50.1631767 C19.6785234,49.7092798 19.8534892,49.2553829 20.0309908,48.8027539 C21.0351426,46.2492669 22.3182254,43.6983157 23.1245897,41.0586137 C23.285609,41.4478493 23.3591454,41.9283714 23.4136637,42.2326598 M23.0713392,51.9508711 C21.6665411,52.7623069 20.4937628,54.1709087 19.2981629,55.2409897 C18.4461553,56.0042464 17.591612,56.7649675 16.7332651,57.5244206 C17.5092006,55.3804552 18.3092255,53.2479005 19.1295364,51.1216852 C19.1751796,51.1229531 19.2208229,51.1128101 19.2651983,51.0798456 C20.8145335,49.9108709 22.6821036,48.5542517 23.7166843,46.8515044 C23.6621659,48.570734 23.4377532,50.276017 23.0713392,51.9508711 M19.7140237,60.9692191 C19.6404873,61.1124882 19.5618795,61.2506859 19.4870753,61.3914193 C18.7263542,62.0862112 18.0176158,62.8469322 17.2670377,63.5404562 C16.0486162,64.6675912 14.8149802,65.7719046 13.5331653,66.8242354 C14.4194053,64.1033898 15.3449492,61.3964907 16.3097971,58.7022704 C17.4534144,57.809691 18.5704064,56.8930222 19.6607732,55.9256386 C20.6674608,55.0330592 21.9125075,54.1024438 22.8177656,53.0158806 C22.1090271,55.777298 21.031339,58.4499646 19.7140237,60.9692191 M15.0977149,68.2163549 C14.2190821,69.4043476 13.3087525,70.565715 12.3768693,71.7093323 C12.2082428,71.9172627 12.0358127,72.1226574 11.8646504,72.3280521 C12.389548,70.6696802 12.8409091,68.9745402 13.362003,67.3516686 C13.4317358,67.4099906 13.5268259,67.4302765 13.613041,67.3668831 C15.0178392,66.3310346 16.5937996,65.2127746 18.0036692,63.9550492 C17.0971433,65.4156336 16.1196168,66.8331105 15.0977149,68.2163549 M20.0474731,71.9591024 C19.7672742,72.1708364 19.499754,72.4028563 19.2423767,72.6107868 C18.6274605,73.109059 18.035366,73.6314208 17.4584858,74.1728006 C15.9662047,74.50625 14.4612449,74.7839132 12.9448743,75.0007187 C15.2321089,73.8152617 17.4775039,72.6069832 20.0474731,71.9591024 M21.5258077,71.644671 C23.3845027,71.3112216 25.2774303,71.2161315 27.148804,71.3898295 C25.443521,71.7714579 23.7509167,72.4053921 22.3004753,72.8656283 C21.1936261,73.2180957 20.0804377,73.533795 18.9583741,73.8152617 C19.2867521,73.5363307 19.6202015,73.263739 19.9625259,73.0000224 C20.5026379,72.5828937 21.1416435,72.2202833 21.5258077,71.644671 M32.1340626,70.5188039 C28.2886177,69.3320791 24.2365103,69.2496676 20.3289399,70.2132476 C18.3104934,70.710252 16.1513135,71.4506872 14.1823139,72.4865357 C15.0647503,71.3517934 15.8698467,70.1485863 16.6419786,69.0987913 C18.3789583,66.731681 19.9777403,64.255534 21.3343595,61.6526002 C24.0450622,56.4480004 25.7161127,50.594252 25.3737883,44.6897888 C25.2672873,42.8691298 25.1772687,39.688048 23.2019297,38.7548968 C21.1555901,37.7875132 18.8721591,40.4043936 17.6372553,41.7039587 C13.8222393,45.7154943 11.4247001,51.0988636 9.9882052,56.3833391 C8.26390417,62.7125381 7.79606073,69.5184557 9.5710765,75.8806194 C9.58375518,75.9300662 9.61038042,75.970638 9.64080926,76.0036026 C9.63446992,76.0352993 9.62559484,76.066996 9.6230591,76.0999606 C9.5228975,77.945977 11.8849363,79.0997372 13.391164,79.4357224 C15.9497224,80.0049953 18.8670876,79.4889728 21.3825385,78.9133606 C23.9487042,78.3263375 26.4831731,77.4375618 28.805908,76.1912471 C30.7102464,75.1706131 32.4408867,73.7708864 32.7248893,71.5052055 C32.7730683,71.1210414 32.5245661,70.6379835 32.1340626,70.5188039" id="Fill-9-Copy" fill="#D6D6D6" transform="translate(20.588750, 59.113902) rotate(-155.000000) translate(-20.588750, -59.113902) "></path>
                <g id="Group-2" transform="translate(39.948846, 38.544968)" fill="#D6D6D6">
                    <path d="M2.1476101,15.6203527 C1.60749816,10.9089537 4.85704487,5.46599464 9.1411722,3.50333435 C13.3695133,1.56476356 18.3420932,2.82629262 21.1757791,6.4904323 C22.6858103,8.44168178 23.3869416,10.8924714 23.1878862,13.3483325 C22.6934176,19.4886192 17.2529942,25.4273148 10.7944726,24.5157174 C6.18196735,23.864033 2.67757909,20.2379294 2.1476101,15.6203527 M9.16019023,26.3072154 C11.6933913,26.9398818 14.412969,26.7154691 16.8079724,25.6770848 C19.6657478,24.4383774 21.6043186,22.08141 22.9571342,19.3288677 C23.9181784,17.3738147 25.0579921,14.9407752 25.2367616,12.7524343 C25.4066559,10.6756659 24.9781164,8.57480796 24.009465,6.73005943 C21.378638,1.72578285 15.4995322,-0.842918535 10.0540375,0.790095967 C4.58572103,2.43071768 0.113949178,8.47084275 0.00618036406,14.1787863 C-0.100320582,19.7992469 3.67032005,24.9366497 9.16019023,26.3072154" id="Fill-64"></path>
                    <path d="M10.7353899,16.3043677 C9.35087764,14.6548709 9.50428971,12.8760515 10.9306417,11.3444665 C11.5772546,10.6509425 12.43053,9.8230244 13.4435568,9.86106045 C14.3640293,9.89656077 15.1260182,10.6344602 15.5431469,11.4129314 C16.2366709,12.7137644 16.2861178,14.5711916 15.1501077,15.6273259 C14.0850983,16.618799 11.9069003,17.7002908 10.7353899,16.3043677 M9.99749052,21.8195952 C10.4374409,21.3771091 10.609871,20.8053005 10.8101942,20.2271525 C10.9927672,19.6971835 11.1766081,19.1672145 11.3591812,18.6385134 C11.8612571,18.7754432 12.3988333,18.796997 12.9617668,18.6879603 C13.3725562,18.6080846 13.7567203,18.4698869 14.1155271,18.2847781 C14.5199771,19.2356794 15.0968572,20.2449027 15.927311,20.4959406 C16.1048126,20.5491911 16.2430103,20.3754931 16.2113136,20.2119381 C16.0972054,19.6122363 15.5697721,19.1393214 15.2160369,18.6549957 C15.0385353,18.4128328 14.8762481,18.1630627 14.7215682,17.9069533 C15.3098591,17.4746102 15.8005242,16.9066052 16.1707418,16.2549208 C16.5675846,15.5563253 16.890891,14.7968721 17.0785355,14.0196688 C17.3891633,14.2314028 17.7226127,14.4076365 18.0826873,14.5268162 C18.5137626,14.6688174 19.2529299,14.9338019 19.6003258,14.5166732 C19.6535763,14.4532798 19.685273,14.3543861 19.6345582,14.2770461 C19.3784488,13.8992213 18.8636943,13.9334538 18.4567085,13.8218813 C18.0218296,13.7027017 17.5996295,13.5302716 17.209126,13.3020553 C17.3308414,12.3118501 17.198983,11.3127698 16.679157,10.3872258 C16.5561738,10.1666167 16.4141725,9.95741845 16.2569568,9.75963098 C16.6804249,9.52253959 17.1013572,9.27150164 17.4969321,8.99003486 C17.8899713,8.70983594 18.3032964,8.43724424 18.346404,7.93009687 C18.355279,7.82106019 18.2449745,7.7082199 18.1372057,7.71455925 C17.7175412,7.73864875 17.479182,8.01377619 17.1888401,8.29651084 C16.7843901,8.68701431 16.3748686,9.05469615 15.9247753,9.38814554 C15.2883054,8.74913986 14.4603873,8.30665379 13.5411827,8.23692103 C13.4524319,8.23058169 13.3636811,8.22804595 13.2761982,8.22804595 C13.0695357,7.40519936 12.8223013,6.53544163 12.3012074,5.90404317 C12.1642776,5.73795241 11.9183112,5.88882875 11.9056325,6.06886606 C11.8587213,6.81944415 12.1389203,7.61439764 12.4356015,8.35229705 C11.4732893,8.62235302 10.6364962,9.30066262 9.93790071,10.0119368 C9.90113252,10.048705 9.86436434,10.0880089 9.82886402,10.1247771 C9.1036433,9.20050101 8.23134984,8.05434798 7.13210793,7.67652319 C6.92290965,7.6042547 6.75935462,7.86416772 6.85824836,8.03786569 C7.4224498,9.03060665 8.57240644,9.78372048 9.4003245,10.5964241 C8.6421392,11.4877356 8.06779481,12.5071018 8.04497318,13.7242555 C8.01961581,15.0859461 8.66496083,16.4641191 9.55246871,17.4720745 C9.88972171,17.8562386 10.272618,18.160527 10.6910145,18.3773325 C10.5071736,18.883212 10.3246006,19.3903594 10.1407597,19.8962389 C9.92015055,20.5048157 9.67545195,21.0842315 9.74264897,21.7435231 C9.75532766,21.860167 9.92268629,21.8956673 9.99749052,21.8195952" id="Fill-66"></path>
                    <path d="M6.40004072,13.3810435 C6.77913337,13.5293841 7.16836897,13.6054562 7.57408686,13.6333493 C7.96459033,13.6612424 7.95064377,13.0437905 7.55887244,13.0235046 C7.20133355,13.0032187 6.84759826,12.9296823 6.51668461,12.7927526 C6.26184306,12.6875195 6.00700151,12.4846605 5.72299899,12.4986071 C5.61396231,12.5036786 5.50746136,12.6013044 5.54422955,12.7192162 C5.65580196,13.086898 6.06912706,13.2504531 6.40004072,13.3810435" id="Fill-68"></path>
                    <path d="M5.48755583,17.2181204 C5.95666714,17.2257276 6.39915321,17.0279402 6.82515699,16.8517065 C7.28919683,16.6589905 7.76211174,16.4928997 8.24390173,16.345827 C8.73710254,16.1949506 8.48099313,15.4519797 7.99032805,15.5901774 C7.09901657,15.8412153 5.88059503,16.1112713 5.31258999,16.9087605 C5.22130346,17.0380831 5.3442867,17.2168526 5.48755583,17.2181204" id="Fill-70"></path>
                </g>
            </g>
        </g>
    </g>
</svg>